PathFileType	4	(X/Y/Z)	S1_nor_fast_right.trc
DataRate	CameraRate	NumFrames	NumMarkers	Units	OrigDataRate	OrigDataStartFrame	OrigNumFrames
250.00	250.00	13	18	mm	250.00	3262	6523
Frame#	Time	c7	r_should	l_should	clavicle	r_upa	r_elb_l	r_elb_m	r_low	r_wri_l	r_wri_m	r_met	l_upa	l_elb_l	l_elb_m	l_low	l_wri_l	l_wri_m	l_met
	X1	Y1	Z1	X2	Y2	Z2	X3	Y3	Z3	X4	Y4	Z4	X5	Y5	Z5	X6	Y6	Z6	X7	Y7	Z7	X8	Y8	Z8	X9	Y9	Z9	X10	Y10	Z10	X11	Y11	Z11	X12	Y12	Z12	X13	Y13	Z13	X14	Y14	Z14	X15	Y15	Z15	X16	Y16	Z16	X17	Y17	Z17	X18	Y18	Z18
3262	13.04400	938.00732	1419.32397	172.33574	1007.05780	1349.53772	342.56201	985.48260	1370.43506	-26.85670	1081.12329	1307.11243	146.83026	999.09253	1140.42542	387.25656	1014.48108	1087.52954	390.30075	989.62579	1032.15955	306.33502	1119.51990	1054.81738	343.31073	1186.29883	1140.16504	348.98816	1183.78455	1112.16187	279.25595	1270.29419	1160.72327	350.32394	986.59613	1147.13269	-70.72321	994.13452	1061.97034	-83.23366	927.64893	1038.78796	-6.73567	948.83527	919.89099	-95.40536	1024.21765	829.70422	-76.81686	952.19922	818.96973	-89.78001	1040.30017	751.78467	-98.18018
3263	13.04800	938.23932	1419.33069	172.42688	1007.33447	1349.53088	342.61182	985.62146	1370.45093	-26.77797	1081.34448	1307.10876	146.84642	999.77765	1140.47571	387.29138	1015.09607	1087.87793	390.36060	991.29358	1032.30530	305.89932	1120.34509	1056.80493	343.04028	1185.75830	1143.07092	348.62427	1183.56799	1114.93762	279.08273	1269.37366	1164.90198	349.83456	986.63910	1147.14661	-70.64564	994.14789	1061.98083	-83.15516	927.67902	1038.83521	-6.63193	948.78424	919.92041	-95.31953	1024.17004	829.71783	-76.74835	952.10779	819.00012	-89.69817	1040.18750	751.78876	-98.09927
3264	13.05200	938.47504	1419.33704	172.51489	1007.60748	1349.52405	342.65741	985.75964	1370.47314	-26.69005	1081.56799	1307.10925	146.86031	1000.47540	1140.53979	387.32462	1015.73279	1088.24390	390.40018	994.28833	1032.38269	304.97812	1120.89941	1058.48938	342.78925	1185.04382	1146.00464	348.27084	1183.19995	1117.79590	278.67410	1268.26892	1169.08960	349.48129	986.68610	1147.16541	-70.57336	994.15979	1061.98730	-83.08344	927.70593	1038.88416	-6.53006	948.73865	919.94989	-95.23925	1024.12256	829.73419	-76.68157	952.01764	819.03571	-89.61807	1040.07056	751.79010	-98.01875
3265	13.05600	938.71100	1419.34729	172.60796	1007.88190	1349.52454	342.70178	985.89514	1370.49414	-26.60963	1081.78271	1307.11206	146.86890	1001.19421	1140.62878	387.36572	1016.39545	1088.64075	390.49734	995.86853	1032.45837	304.61011	1121.37634	1060.10986	342.56555	1184.22241	1148.82092	347.96329	1182.81836	1120.68799	278.23157	1267.06921	1173.23218	349.13962	986.73676	1147.18640	-70.49709	994.17450	1062.00647	-83.01030	927.73035	1038.92126	-6.42468	948.69232	919.98444	-95.15623	1024.07104	829.74707	-76.61424	951.91479	819.07220	-89.53786	1039.94983	751.79315	-97.94064
3266	13.06000	938.95215	1419.36108	172.70248	1008.16083	1349.53113	342.74686	986.03204	1370.50867	-26.53619	1081.99463	1307.10925	146.88710	1001.92133	1140.71582	387.39377	1017.05707	1089.01172	390.59494	997.08020	1032.54895	304.38611	1121.82898	1061.72021	342.34726	1183.36230	1151.56580	347.68927	1182.43604	1123.58582	277.80920	1265.85486	1177.36914	348.81958	986.79175	1147.20032	-70.41959	994.18481	1062.02222	-82.93683	927.75427	1038.97571	-6.33530	948.64319	920.02014	-95.07817	1024.01892	829.75891	-76.54916	951.81622	819.10626	-89.45869	1039.83167	751.79102	-97.86346
3267	13.06400	939.19873	1419.37024	172.78717	1008.44189	1349.53943	342.79111	986.16534	1370.53113	-26.45454	1082.20361	1307.10120	146.91710	1002.67151	1140.80945	387.41394	1017.70892	1089.30933	390.64813	998.17621	1032.68921	304.18158	1122.26794	1063.29626	342.13562	1182.51807	1154.30042	347.44601	1182.03894	1126.47961	277.42764	1264.65356	1181.47388	348.52023	986.84747	1147.21533	-70.34403	994.20160	1062.03052	-82.85810	927.78259	1039.02771	-6.25517	948.59125	920.04755	-94.99802	1023.96667	829.77533	-76.49008	951.72321	819.13873	-89.39045	1039.71960	751.78473	-97.79433
3268	13.06800	939.43475	1419.38013	172.87004	1008.72681	1349.55261	342.83191	986.29956	1370.55591	-26.37844	1082.41101	1307.09180	146.93155	1003.42725	1140.90845	387.45465	1018.36719	1089.58789	390.70721	999.23291	1032.86426	304.01715	1122.69836	1064.87109	341.91553	1181.73230	1157.06592	347.23056	1181.64282	1129.36548	277.09305	1263.39539	1185.51379	348.21100	986.91052	1147.23010	-70.26559	994.21967	1062.04541	-82.78549	927.81696	1039.07178	-6.16966	948.53870	920.07574	-94.91235	1023.91364	829.79340	-76.43390	951.63281	819.16962	-89.31947	1039.60229	751.79266	-97.73281
3269	13.07200	939.66321	1419.39575	172.94749	1009.01483	1349.56824	342.87143	986.43317	1370.58118	-26.31010	1082.61646	1307.08606	146.95062	1004.19830	1141.01587	387.52573	1019.03436	1089.88318	390.79749	1000.21460	1033.03601	303.84149	1123.11951	1066.44751	341.70486	1180.96240	1159.81824	346.99680	1181.23669	1132.05432	276.85632	1262.09644	1189.50916	347.91498	986.97260	1147.24988	-70.17848	994.23944	1062.05994	-82.71123	927.84363	1039.11951	-6.07779	948.49219	920.11493	-94.83226	1023.85925	829.80908	-76.38392	951.53241	819.21515	-89.23808	1039.48804	751.79968	-97.66736
3270	13.07600	939.89600	1419.41382	173.03506	1009.29810	1349.58313	342.89819	986.56580	1370.60693	-26.24124	1082.82935	1307.07715	146.97072	1004.95673	1141.12976	387.59439	1019.71436	1090.22400	390.83939	1001.29523	1033.17505	303.64404	1123.64429	1068.26526	341.20447	1180.19702	1162.52905	346.73584	1180.81421	1134.52698	276.66919	1260.79077	1193.47217	347.64899	987.03815	1147.27197	-70.09624	994.25159	1062.07727	-82.64133	927.87622	1039.16833	-5.99036	948.44763	920.15540	-94.74986	1023.80499	829.82001	-76.32934	951.43817	819.25067	-89.15337	1039.37488	751.80530	-97.59985
3271	13.08000	940.13226	1419.42432	173.13933	1009.58630	1349.60107	342.92514	986.70184	1370.62927	-26.17381	1083.05176	1307.06531	146.99503	1005.73206	1141.26501	387.67947	1020.37073	1090.56567	390.82056	1002.36298	1033.29077	303.46527	1124.29480	1070.45105	340.32916	1179.43567	1165.19360	346.50464	1180.28760	1137.26184	276.43057	1259.29395	1197.21497	347.39890	987.10168	1147.28674	-70.01743	994.26569	1062.09644	-82.58202	927.90826	1039.22119	-5.90206	948.40533	920.19067	-94.66623	1023.75153	829.83301	-76.27816	951.34076	819.28650	-89.07139	1039.25562	751.81580	-97.54858
3272	13.08400	940.37317	1419.44177	173.23750	1009.87219	1349.62024	342.96341	986.84033	1370.64941	-26.10633	1083.27026	1307.05603	147.01987	1006.52924	1141.39844	387.78806	1021.07666	1090.89209	390.89645	1003.38269	1033.39807	303.31503	1124.91199	1072.36987	339.86502	1178.89624	1167.75635	346.28403	1179.71802	1140.00513	276.16666	1257.83752	1200.98279	347.09174	987.16443	1147.29431	-69.93510	994.28101	1062.11255	-82.51186	927.94281	1039.27283	-5.81890	948.36218	920.22064	-94.58190	1023.69879	829.84460	-76.23478	951.25214	819.31903	-88.99174	1039.14233	751.81940	-97.49702
3273	13.08800	940.61200	1419.45789	173.32465	1010.16162	1349.64661	342.99197	986.98724	1370.66589	-26.04423	1083.47681	1307.05188	147.03453	1007.34985	1141.53809	387.88867	1021.80292	1091.18909	391.00290	1004.32922	1033.50464	303.19495	1125.51868	1074.22180	339.50305	1178.55273	1170.11194	346.01517	1179.12268	1142.73242	275.91489	1256.65149	1205.07373	346.76059	987.22589	1147.30811	-69.85677	994.29858	1062.12378	-82.44154	927.98065	1039.32214	-5.73264	948.32080	920.25299	-94.49954	1023.65076	829.85565	-76.19056	951.16827	819.35132	-88.92405	1039.03687	751.82416	-97.44765
3274	13.09200	940.84412	1419.47107	173.42061	1010.44989	1349.68066	343.01956	987.13586	1370.68140	-25.98567	1083.68091	1307.05457	147.06075	1008.19421	1141.71606	387.99905	1022.53583	1091.47314	391.13422	1005.30707	1033.62915	303.09689	1126.12231	1076.04077	339.18063	1177.81030	1172.52917	345.72217	1178.50317	1145.42383	275.66876	1255.28723	1208.87195	346.48233	987.28253	1147.32507	-69.78103	994.31873	1062.13794	-82.37843	928.01532	1039.36572	-5.64230	948.28094	920.28790	-94.41737	1023.60248	829.86414	-76.14346	951.08398	819.38129	-88.85354	1038.92944	751.82947	-97.40242
